{
  "accessors": [
    {
      "bufferView": 2,
      "componentType": 5126,
      "count": 13159,
      "max": [
        12.089393615722656,
        10.984127998352051,
        19.489456176757812
      ],
      "min": [
        1.1187171936035156,
        0,
        0
      ],
      "type": "VEC3"
    },
    {
      "bufferView": 2,
      "byteOffset": 157908,
      "componentType": 5126,
      "count": 13159,
      "max": [
        1,
        1,
        1
      ],
      "min": [
        -1,
        -1,
        -1
      ],
      "type": "VEC3"
    },
    {
      "bufferView": 3,
      "componentType": 5126,
      "count": 13159,
      "max": [
        0.99999856948852539,
        0.99999946355819702,
        1,
        -1
      ],
      "min": [
        -1,
        -1,
        -0.99999719858169556,
        -1
      ],
      "type": "VEC4"
    },
    {
      "bufferView": 1,
      "componentType": 5126,
      "count": 13159,
      "max": [
        0.92458301782608032,
        0.99493497610092163
      ],
      "min": [
        0.0020000000949949026,
        0.0020000000949949026
      ],
      "type": "VEC2"
    },
    {
      "bufferView": 0,
      "componentType": 5125,
      "count": 67011,
      "max": [
        13158
      ],
      "min": [
        0
      ],
      "type": "SCALAR"
    },
    {
      "bufferView": 2,
      "byteOffset": 315816,
      "componentType": 5126,
      "count": 96,
      "max": [
        10.90504264831543,
        9.7760696411132812,
        19.974781036376953
      ],
      "min": [
        2.2740130424499512,
        1.2640089988708496,
        19.431020736694336
      ],
      "type": "VEC3"
    },
    {
      "bufferView": 2,
      "byteOffset": 316968,
      "componentType": 5126,
      "count": 96,
      "max": [
        0.99992913007736206,
        0.99992913007736206,
        1
      ],
      "min": [
        -0.99992913007736206,
        -0.99992907047271729,
        -1
      ],
      "type": "VEC3"
    },
    {
      "bufferView": 3,
      "byteOffset": 210544,
      "componentType": 5126,
      "count": 96,
      "max": [
        1,
        0.99999850988388062,
        0.99992936849594116,
        1
      ],
      "min": [
        -1,
        -0.99999850988388062,
        -0.99992936849594116,
        1
      ],
      "type": "VEC4"
    },
    {
      "bufferView": 1,
      "byteOffset": 105272,
      "componentType": 5126,
      "count": 96,
      "max": [
        1,
        1
      ],
      "min": [
        0,
        0
      ],
      "type": "VEC2"
    },
    {
      "bufferView": 0,
      "byteOffset": 268044,
      "componentType": 5125,
      "count": 324,
      "max": [
        95
      ],
      "min": [
        0
      ],
      "type": "SCALAR"
    },
    {
      "bufferView": 2,
      "byteOffset": 318120,
      "componentType": 5126,
      "count": 37448,
      "max": [
        10.591274261474609,
        7.0448980331420898,
        24.003349304199219
      ],
      "min": [
        2.5785002708435059,
        1.8622629642486572,
        19.340885162353516
      ],
      "type": "VEC3"
    },
    {
      "bufferView": 2,
      "byteOffset": 767496,
      "componentType": 5126,
      "count": 37448,
      "max": [
        0.99984025955200195,
        0.99991881847381592,
        0.99997794628143311
      ],
      "min": [
        -0.99984806776046753,
        -0.99993330240249634,
        -0.99989670515060425
      ],
      "type": "VEC3"
    },
    {
      "bufferView": 3,
      "byteOffset": 212080,
      "componentType": 5126,
      "count": 37448,
      "max": [
        0.99991345405578613,
        0.99998927116394043,
        0.99979352951049805,
        1
      ],
      "min": [
        -0.99999386072158813,
        -0.99999868869781494,
        -0.99981969594955444,
        -1
      ],
      "type": "VEC4"
    },
    {
      "bufferView": 1,
      "byteOffset": 106040,
      "componentType": 5126,
      "count": 37448,
      "max": [
        1,
        1
      ],
      "min": [
        0,
        0
      ],
      "type": "VEC2"
    },
    {
      "bufferView": 0,
      "byteOffset": 269340,
      "componentType": 5125,
      "count": 118575,
      "max": [
        37447
      ],
      "min": [
        0
      ],
      "type": "SCALAR"
    },
    {
      "bufferView": 2,
      "byteOffset": 1216872,
      "componentType": 5126,
      "count": 7749,
      "max": [
        13.349696159362793,
        8.2943248748779297,
        35.301204681396484
      ],
      "min": [
        0,
        3.205643892288208,
        19.887092590332031
      ],
      "type": "VEC3"
    },
    {
      "bufferView": 2,
      "byteOffset": 1309860,
      "componentType": 5126,
      "count": 7749,
      "max": [
        0.99965143203735352,
        0.99996292591094971,
        0.99828088283538818
      ],
      "min": [
        -0.99823200702667236,
        -0.99997037649154663,
        -0.99998217821121216
      ],
      "type": "VEC3"
    },
    {
      "bufferView": 3,
      "byteOffset": 811248,
      "componentType": 5126,
      "count": 7749,
      "max": [
        0.99998986721038818,
        0.9998089075088501,
        0.99985694885253906,
        1
      ],
      "min": [
        -0.99999582767486572,
        -0.99770420789718628,
        -0.99994993209838867,
        -1
      ],
      "type": "VEC4"
    },
    {
      "bufferView": 1,
      "byteOffset": 405624,
      "componentType": 5126,
      "count": 7749,
      "max": [
        0.99422800540924072,
        0.99800002574920654
      ],
      "min": [
        0.0020000000949949026,
        0.0020000000949949026
      ],
      "type": "VEC2"
    },
    {
      "bufferView": 0,
      "byteOffset": 743640,
      "componentType": 5125,
      "count": 36906,
      "max": [
        7748
      ],
      "min": [
        0
      ],
      "type": "SCALAR"
    }
  ],
  "asset": {
    "extras": {
      "author": "Francesco Coldesina (https://sketchfab.com/topfrank2013)",
      "license": "CC-BY-4.0 (http://creativecommons.org/licenses/by/4.0/)",
      "source": "https://sketchfab.com/models/45690054e5cf4b9abd512ce63855df20",
      "title": "Shiva Dancing Support"
    },
    "generator": "Sketchfab-3.20.7",
    "version": "2.0"
  },
  "bufferViews": [
    {
      "buffer": 0,
      "byteLength": 891264,
      "byteOffset": 0,
      "name": "floatBufferViews",
      "target": 34963
    },
    {
      "buffer": 0,
      "byteLength": 467616,
      "byteOffset": 891264,
      "byteStride": 8,
      "name": "floatBufferViews",
      "target": 34962
    },
    {
      "buffer": 0,
      "byteLength": 1402848,
      "byteOffset": 1358880,
      "byteStride": 12,
      "name": "floatBufferViews",
      "target": 34962
    },
    {
      "buffer": 0,
      "byteLength": 935232,
      "byteOffset": 2761728,
      "byteStride": 16,
      "name": "floatBufferViews",
      "target": 34962
    }
  ],
  "buffers": [
    {
      "byteLength": 3696960,
      "uri": "scene.bin"
    }
  ],
  "images": [
    {
      "uri": "textures/ShivaDance1_normal.png"
    },
    {
      "uri": "textures/ShivaDance1_baseColor.jpeg"
    },
    {
      "uri": "textures/CL_Skin_Box02_01_emissive.jpeg"
    },
    {
      "uri": "textures/CL_Skin_Box02_01_normal.png"
    },
    {
      "uri": "textures/CL_Skin_Box02_01_metallicRoughness.png"
    },
    {
      "uri": "textures/CL_Skin_Box02_01_baseColor.jpeg"
    },
    {
      "uri": "textures/Petalo_Red_A_baseColor.png"
    },
    {
      "uri": "textures/Petalo_Red_A_metallicRoughness.png"
    },
    {
      "uri": "textures/material_baseColor.jpeg"
    },
    {
      "uri": "textures/material_emissive.jpeg"
    }
  ],
  "materials": [
    {
      "doubleSided": true,
      "emissiveFactor": [
        0,
        0,
        0
      ],
      "emissiveTexture": {
        "index": 2,
        "texCoord": 0
      },
      "name": "CL_Skin_Box02_01",
      "normalTexture": {
        "index": 3,
        "scale": 1,
        "texCoord": 0
      },
      "pbrMetallicRoughness": {
        "baseColorFactor": [
          1,
          1,
          1,
          1
        ],
        "baseColorTexture": {
          "index": 5,
          "texCoord": 0
        },
        "metallicFactor": 0,
        "metallicRoughnessTexture": {
          "index": 4,
          "texCoord": 0
        },
        "roughnessFactor": 1
      }
    },
    {
      "doubleSided": true,
      "emissiveFactor": [
        0,
        0,
        0
      ],
      "emissiveTexture": {
        "index": 9,
        "texCoord": 0
      },
      "name": "material",
      "pbrMetallicRoughness": {
        "baseColorFactor": [
          0.4834222561,
          0.4834222561,
          0.4834222561,
          1
        ],
        "baseColorTexture": {
          "index": 8,
          "texCoord": 0
        },
        "metallicFactor": 0,
        "roughnessFactor": 0.47732469509999997
      }
    },
    {
      "alphaMode": "BLEND",
      "doubleSided": true,
      "emissiveFactor": [
        0,
        0,
        0
      ],
      "name": "Petalo_Red_A",
      "pbrMetallicRoughness": {
        "baseColorFactor": [
          1,
          1,
          1,
          1
        ],
        "baseColorTexture": {
          "index": 6,
          "texCoord": 0
        },
        "metallicFactor": 0,
        "metallicRoughnessTexture": {
          "index": 7,
          "texCoord": 0
        },
        "roughnessFactor": 1
      }
    },
    {
      "doubleSided": true,
      "emissiveFactor": [
        0,
        0,
        0
      ],
      "name": "ShivaDance1",
      "normalTexture": {
        "index": 0,
        "scale": 1,
        "texCoord": 0
      },
      "pbrMetallicRoughness": {
        "baseColorFactor": [
          1,
          1,
          1,
          1
        ],
        "baseColorTexture": {
          "index": 1,
          "texCoord": 0
        },
        "metallicFactor": 0.52610518289999997,
        "roughnessFactor": 0.59999999999999998
      }
    }
  ],
  "meshes": [
    {
      "primitives": [
        {
          "attributes": {
            "NORMAL": 1,
            "POSITION": 0,
            "TANGENT": 2,
            "TEXCOORD_0": 3
          },
          "indices": 4,
          "material": 0,
          "mode": 4
        }
      ]
    },
    {
      "primitives": [
        {
          "attributes": {
            "NORMAL": 6,
            "POSITION": 5,
            "TANGENT": 7,
            "TEXCOORD_0": 8
          },
          "indices": 9,
          "material": 1,
          "mode": 4
        }
      ]
    },
    {
      "primitives": [
        {
          "attributes": {
            "NORMAL": 11,
            "POSITION": 10,
            "TANGENT": 12,
            "TEXCOORD_0": 13
          },
          "indices": 14,
          "material": 2,
          "mode": 4
        }
      ]
    },
    {
      "primitives": [
        {
          "attributes": {
            "NORMAL": 16,
            "POSITION": 15,
            "TANGENT": 17,
            "TEXCOORD_0": 18
          },
          "indices": 19,
          "material": 3,
          "mode": 4
        }
      ]
    }
  ],
  "nodes": [
    {
      "children": [
        1
      ],
      "name": "RootNode (gltf orientation matrix)",
      "rotation": [
        -0.70710678118654746,
        -0,
        -0,
        0.70710678118654757
      ]
    },
    {
      "children": [
        2
      ],
      "name": "RootNode (model correction matrix)"
    },
    {
      "children": [
        3
      ],
      "matrix": [
        1,
        0,
        0,
        0,
        0,
        1,
        0,
        0,
        0,
        0,
        1,
        0,
        -6.6748480796813965,
        -5.4920639991760254,
        -17.650600433349609,
        1
      ],
      "name": "Shiva Dancing Suppor A1.obj.cleaner.gles"
    },
    {
      "children": [
        4,
        5,
        6,
        7
      ],
      "name": ""
    },
    {
      "mesh": 0,
      "name": ""
    },
    {
      "mesh": 1,
      "name": ""
    },
    {
      "mesh": 2,
      "name": ""
    },
    {
      "mesh": 3,
      "name": ""
    }
  ],
  "samplers": [
    {
      "magFilter": 9729,
      "minFilter": 9987,
      "wrapS": 10497,
      "wrapT": 10497
    }
  ],
  "scene": 0,
  "scenes": [
    {
      "name": "OSG_Scene",
      "nodes": [
        0
      ]
    }
  ],
  "textures": [
    {
      "sampler": 0,
      "source": 0
    },
    {
      "sampler": 0,
      "source": 1
    },
    {
      "sampler": 0,
      "source": 2
    },
    {
      "sampler": 0,
      "source": 3
    },
    {
      "sampler": 0,
      "source": 4
    },
    {
      "sampler": 0,
      "source": 5
    },
    {
      "sampler": 0,
      "source": 6
    },
    {
      "sampler": 0,
      "source": 7
    },
    {
      "sampler": 0,
      "source": 8
    },
    {
      "sampler": 0,
      "source": 9
    }
  ]
}

