{
  "accessors": [
    {
      "bufferView": 2,
      "componentType": 5126,
      "count": 65532,
      "max": [
        173.84597778320312,
        232.07228088378906,
        197.95822143554688
      ],
      "min": [
        -122.25071716308594,
        -17.031829833984375,
        -105.18325805664062
      ],
      "type": "VEC3"
    },
    {
      "bufferView": 2,
      "byteOffset": 786384,
      "componentType": 5126,
      "count": 65532,
      "max": [
        0.99994909763336182,
        0.99993449449539185,
        0.99998146295547485
      ],
      "min": [
        -0.9999811053276062,
        -0.99991261959075928,
        -0.99993336200714111
      ],
      "type": "VEC3"
    },
    {
      "bufferView": 1,
      "componentType": 5126,
      "count": 65532,
      "max": [
        0.69503200054168701,
        0.99609297513961792
      ],
      "min": [
        0.004164000041782856,
        0.46334698796272278
      ],
      "type": "VEC2"
    },
    {
      "bufferView": 0,
      "componentType": 5125,
      "count": 380841,
      "max": [
        65531
      ],
      "min": [
        0
      ],
      "type": "SCALAR"
    },
    {
      "bufferView": 2,
      "byteOffset": 1572768,
      "componentType": 5126,
      "count": 65532,
      "max": [
        182.63963317871094,
        226.31849670410156,
        190.7664794921875
      ],
      "min": [
        -126.20760345458984,
        -90.222023010253906,
        -71.978103637695312
      ],
      "type": "VEC3"
    },
    {
      "bufferView": 2,
      "byteOffset": 2359152,
      "componentType": 5126,
      "count": 65532,
      "max": [
        0.99998199939727783,
        0.99999946355819702,
        0.9998478889465332
      ],
      "min": [
        -0.99991536140441895,
        -0.99999773502349854,
        -0.9999956488609314
      ],
      "type": "VEC3"
    },
    {
      "bufferView": 1,
      "byteOffset": 524256,
      "componentType": 5126,
      "count": 65532,
      "max": [
        0.91985100507736206,
        0.99600797891616821
      ],
      "min": [
        0.14942899346351624,
        0.24223500490188599
      ],
      "type": "VEC2"
    },
    {
      "bufferView": 0,
      "byteOffset": 1523364,
      "componentType": 5125,
      "count": 364725,
      "max": [
        65531
      ],
      "min": [
        0
      ],
      "type": "SCALAR"
    },
    {
      "bufferView": 2,
      "byteOffset": 3145536,
      "componentType": 5126,
      "count": 65532,
      "max": [
        198.255126953125,
        226.17250061035156,
        203.17030334472656
      ],
      "min": [
        -153.94512939453125,
        -97.512290954589844,
        -105.59902191162109
      ],
      "type": "VEC3"
    },
    {
      "bufferView": 2,
      "byteOffset": 3931920,
      "componentType": 5126,
      "count": 65532,
      "max": [
        0.99998199939727783,
        0.99987590312957764,
        0.999900221824646
      ],
      "min": [
        -0.99996864795684814,
        -0.9998939037322998,
        -0.9999883770942688
      ],
      "type": "VEC3"
    },
    {
      "bufferView": 1,
      "byteOffset": 1048512,
      "componentType": 5126,
      "count": 65532,
      "max": [
        0.99316298961639404,
        0.99570202827453613
      ],
      "min": [
        0.031438998878002167,
        0.014061000198125839
      ],
      "type": "VEC2"
    },
    {
      "bufferView": 0,
      "byteOffset": 2982264,
      "componentType": 5125,
      "count": 346617,
      "max": [
        65531
      ],
      "min": [
        0
      ],
      "type": "SCALAR"
    },
    {
      "bufferView": 2,
      "byteOffset": 4718304,
      "componentType": 5126,
      "count": 65532,
      "max": [
        206.20065307617188,
        241.35577392578125,
        205.53990173339844
      ],
      "min": [
        -153.94512939453125,
        -98.484756469726562,
        -67.245254516601562
      ],
      "type": "VEC3"
    },
    {
      "bufferView": 2,
      "byteOffset": 5504688,
      "componentType": 5126,
      "count": 65532,
      "max": [
        0.99997162818908691,
        0.99999946355819702,
        0.99991762638092041
      ],
      "min": [
        -0.99999266862869263,
        -0.99993962049484253,
        -0.99994933605194092
      ],
      "type": "VEC3"
    },
    {
      "bufferView": 1,
      "byteOffset": 1572768,
      "componentType": 5126,
      "count": 65532,
      "max": [
        0.97964400053024292,
        0.84627801179885864
      ],
      "min": [
        0.059016000479459763,
        0.0010400000028312206
      ],
      "type": "VEC2"
    },
    {
      "bufferView": 0,
      "byteOffset": 4368732,
      "componentType": 5125,
      "count": 322695,
      "max": [
        65531
      ],
      "min": [
        0
      ],
      "type": "SCALAR"
    },
    {
      "bufferView": 2,
      "byteOffset": 6291072,
      "componentType": 5126,
      "count": 20621,
      "max": [
        206.06982421875,
        216.98101806640625,
        203.49314880371094
      ],
      "min": [
        -153.63160705566406,
        -98.082565307617188,
        -63.743621826171875
      ],
      "type": "VEC3"
    },
    {
      "bufferView": 2,
      "byteOffset": 6538524,
      "componentType": 5126,
      "count": 20621,
      "max": [
        0.99980634450912476,
        0.99989086389541626,
        0.99996286630630493
      ],
      "min": [
        -0.99998366832733154,
        -0.9999920129776001,
        -0.99779200553894043
      ],
      "type": "VEC3"
    },
    {
      "bufferView": 1,
      "byteOffset": 2097024,
      "componentType": 5126,
      "count": 20621,
      "max": [
        0.95229798555374146,
        0.78346002101898193
      ],
      "min": [
        0.0038399999029934406,
        0.00091900001280009747
      ],
      "type": "VEC2"
    },
    {
      "bufferView": 0,
      "byteOffset": 5659512,
      "componentType": 5125,
      "count": 85119,
      "max": [
        20620
      ],
      "min": [
        0
      ],
      "type": "SCALAR"
    }
  ],
  "asset": {
    "extras": {
      "author": "The British Museum (https://sketchfab.com/britishmuseum)",
      "license": "CC-BY-NC-SA-4.0 (http://creativecommons.org/licenses/by-nc-sa/4.0/)",
      "source": "https://sketchfab.com/3d-models/xing-hou-gui-f601440ab10d4826b6dd6947b470d782",
      "title": "Xing Hou gui"
    },
    "generator": "Sketchfab-9.80.0",
    "version": "2.0"
  },
  "bufferViews": [
    {
      "buffer": 0,
      "byteLength": 5999988,
      "byteOffset": 0,
      "name": "floatBufferViews",
      "target": 34963
    },
    {
      "buffer": 0,
      "byteLength": 2261992,
      "byteOffset": 5999988,
      "byteStride": 8,
      "name": "floatBufferViews",
      "target": 34962
    },
    {
      "buffer": 0,
      "byteLength": 6785976,
      "byteOffset": 8261980,
      "byteStride": 12,
      "name": "floatBufferViews",
      "target": 34962
    }
  ],
  "buffers": [
    {
      "byteLength": 15047956,
      "uri": "scene.bin"
    }
  ],
  "images": [
    {
      "uri": "textures/material_0_baseColor.jpeg"
    }
  ],
  "materials": [
    {
      "doubleSided": true,
      "emissiveFactor": [
        0,
        0,
        0
      ],
      "name": "material_0",
      "pbrMetallicRoughness": {
        "baseColorFactor": [
          1,
          1,
          1,
          1
        ],
        "baseColorTexture": {
          "index": 0,
          "texCoord": 0
        },
        "metallicFactor": 0,
        "roughnessFactor": 0.43765867479999998
      }
    }
  ],
  "meshes": [
    {
      "primitives": [
        {
          "attributes": {
            "NORMAL": 1,
            "POSITION": 0,
            "TEXCOORD_0": 2
          },
          "indices": 3,
          "material": 0,
          "mode": 4
        }
      ]
    },
    {
      "primitives": [
        {
          "attributes": {
            "NORMAL": 5,
            "POSITION": 4,
            "TEXCOORD_0": 6
          },
          "indices": 7,
          "material": 0,
          "mode": 4
        }
      ]
    },
    {
      "primitives": [
        {
          "attributes": {
            "NORMAL": 9,
            "POSITION": 8,
            "TEXCOORD_0": 10
          },
          "indices": 11,
          "material": 0,
          "mode": 4
        }
      ]
    },
    {
      "primitives": [
        {
          "attributes": {
            "NORMAL": 13,
            "POSITION": 12,
            "TEXCOORD_0": 14
          },
          "indices": 15,
          "material": 0,
          "mode": 4
        }
      ]
    },
    {
      "primitives": [
        {
          "attributes": {
            "NORMAL": 17,
            "POSITION": 16,
            "TEXCOORD_0": 18
          },
          "indices": 19,
          "material": 0,
          "mode": 4
        }
      ]
    }
  ],
  "nodes": [
    {
      "children": [
        1
      ],
      "name": "RootNode (gltf orientation matrix)",
      "rotation": [
        -0.70710678118654746,
        -0,
        -0,
        0.70710678118654757
      ]
    },
    {
      "children": [
        2
      ],
      "matrix": [
        1,
        0,
        0,
        0,
        0,
        0.88089114427566528,
        -0.47331890463829041,
        0,
        0,
        0.47331890463829041,
        0.88089114427566528,
        0,
        0,
        -15.1612548828125,
        39.757740020751953,
        1
      ],
      "name": "RootNode (model correction matrix)"
    },
    {
      "children": [
        3,
        4,
        5,
        6,
        7
      ],
      "name": "The_Xing_Hou_gui_5M.obj.cleaner.materialmerger.gles"
    },
    {
      "mesh": 0,
      "name": ""
    },
    {
      "mesh": 1,
      "name": ""
    },
    {
      "mesh": 2,
      "name": ""
    },
    {
      "mesh": 3,
      "name": ""
    },
    {
      "mesh": 4,
      "name": ""
    }
  ],
  "samplers": [
    {
      "magFilter": 9729,
      "minFilter": 9987,
      "wrapS": 10497,
      "wrapT": 10497
    }
  ],
  "scene": 0,
  "scenes": [
    {
      "name": "OSG_Scene",
      "nodes": [
        0
      ]
    }
  ],
  "textures": [
    {
      "sampler": 0,
      "source": 0
    }
  ]
}

